<svg width="24" height="24" viewBox="0 0 24 24" fill="none" xmlns="http://www.w3.org/2000/svg">
    <path d="M20.25 2.25H3.75C3.15326 2.25 2.58097 2.48705 2.15901 2.90901C1.73705 3.33097 1.5 3.90326 1.5 4.5V6.75C1.5013 7.21421 1.64616 7.66665 1.9147 8.0453C2.18325 8.42395 2.56234 8.71027 3 8.865V19.5C3 20.0967 3.23705 20.669 3.65901 21.091C4.08097 21.5129 4.65326 21.75 5.25 21.75H18.75C19.3467 21.75 19.919 21.5129 20.341 21.091C20.7629 20.669 21 20.0967 21 19.5V8.865C21.4377 8.71027 21.8168 8.42395 22.0853 8.0453C22.3538 7.66665 22.4987 7.21421 22.5 6.75V4.5C22.5 3.90326 22.2629 3.33097 21.841 2.90901C21.419 2.48705 20.8467 2.25 20.25 2.25ZM19.5 19.5C19.5 19.6989 19.421 19.8897 19.2803 20.0303C19.1397 20.171 18.9489 20.25 18.75 20.25H5.25C5.05109 20.25 4.86032 20.171 4.71967 20.0303C4.57902 19.8897 4.5 19.6989 4.5 19.5V9H19.5V19.5ZM21 6.75C21 6.94891 20.921 7.13968 20.7803 7.28033C20.6397 7.42098 20.4489 7.5 20.25 7.5H3.75C3.55109 7.5 3.36032 7.42098 3.21967 7.28033C3.07902 7.13968 3 6.94891 3 6.75V4.5C3 4.30109 3.07902 4.11032 3.21967 3.96967C3.36032 3.82902 3.55109 3.75 3.75 3.75H20.25C20.4489 3.75 20.6397 3.82902 20.7803 3.96967C20.921 4.11032 21 4.30109 21 4.5V6.75Z"
          fill="white"/>
    <path d="M9.75 12.75H14.25C14.4489 12.75 14.6397 12.671 14.7803 12.5303C14.921 12.3897 15 12.1989 15 12C15 11.8011 14.921 11.6103 14.7803 11.4697C14.6397 11.329 14.4489 11.25 14.25 11.25H9.75C9.55109 11.25 9.36032 11.329 9.21967 11.4697C9.07902 11.6103 9 11.8011 9 12C9 12.1989 9.07902 12.3897 9.21967 12.5303C9.36032 12.671 9.55109 12.75 9.75 12.75Z"
          fill="white"/>
</svg>
