<svg width="25" height="24" viewBox="0 0 25 24" fill="none" xmlns="http://www.w3.org/2000/svg">
    <path d="M19.8248 9.46826C19.8248 9.46826 19.2818 16.2033 18.9668 19.0403C18.8168 20.3953 17.9798 21.1893 16.6088 21.2143C13.9998 21.2613 11.3878 21.2643 8.77979 21.2093C7.46079 21.1823 6.63779 20.3783 6.49079 19.0473C6.17379 16.1853 5.63379 9.46826 5.63379 9.46826"
          stroke="#130F26" stroke-width="1.5" stroke-linecap="round" stroke-linejoin="round"/>
    <path d="M21.208 6.23975H4.25" stroke="#130F26" stroke-width="1.5" stroke-linecap="round" stroke-linejoin="round"/>
    <path d="M17.9406 6.23973C17.1556 6.23973 16.4796 5.68473 16.3256 4.91573L16.0826 3.69973C15.9326 3.13873 15.4246 2.75073 14.8456 2.75073H10.6126C10.0336 2.75073 9.52558 3.13873 9.37558 3.69973L9.13258 4.91573C8.97858 5.68473 8.30258 6.23973 7.51758 6.23973"
          stroke="#130F26" stroke-width="1.5" stroke-linecap="round" stroke-linejoin="round"/>
</svg>
