<svg width="144" height="41" viewBox="0 0 144 41" fill="none" xmlns="http://www.w3.org/2000/svg">
    <path d="M23.88 29.5601C23.56 29.8268 22.96 30.1868 22.08 30.6401C21.2267 31.0934 20.1733 31.4934 18.92 31.8401C17.6667 32.1868 16.28 32.3468 14.76 32.3201C12.44 32.2668 10.36 31.8534 8.52 31.0801C6.70667 30.2801 5.16 29.2001 3.88 27.8401C2.62667 26.4801 1.66667 24.9201 1 23.1601C0.33333 21.4001 0 19.5201 0 17.5201C0 15.2801 0.33333 13.2268 1 11.3601C1.69333 9.49336 2.66667 7.88006 3.92 6.52006C5.2 5.16006 6.72 4.10676 8.48 3.36006C10.24 2.61336 12.1867 2.24006 14.32 2.24006C16.2933 2.24006 18.04 2.50676 19.56 3.04006C21.08 3.57336 22.32 4.14676 23.28 4.76006L21 10.2401C20.3333 9.73336 19.44 9.21336 18.32 8.68006C17.2267 8.12006 15.96 7.84006 14.52 7.84006C13.4 7.84006 12.32 8.08006 11.28 8.56006C10.2667 9.01336 9.36 9.66676 8.56 10.5201C7.78667 11.3734 7.17333 12.3734 6.72 13.5201C6.26667 14.6401 6.04 15.8668 6.04 17.2001C6.04 18.6134 6.24 19.9068 6.64 21.0801C7.06667 22.2534 7.66667 23.2668 8.44 24.1201C9.2133 24.9468 10.1333 25.5868 11.2 26.0401C12.2933 26.4934 13.52 26.7201 14.88 26.7201C16.4533 26.7201 17.8 26.4668 18.92 25.9601C20.04 25.4534 20.8933 24.9201 21.48 24.3601L23.88 29.5601ZM26.793 23.0401C26.793 21.2534 27.2063 19.6534 28.033 18.2401C28.8863 16.8268 30.073 15.7201 31.593 14.9201C33.113 14.0934 34.8597 13.6801 36.833 13.6801C38.833 13.6801 40.5663 14.0934 42.033 14.9201C43.4997 15.7201 44.6197 16.8268 45.393 18.2401C46.193 19.6534 46.593 21.2534 46.593 23.0401C46.593 24.8268 46.193 26.4401 45.393 27.8801C44.6197 29.2934 43.4997 30.4134 42.033 31.2401C40.5663 32.0668 38.8063 32.4801 36.753 32.4801C34.833 32.4801 33.113 32.1068 31.593 31.3601C30.0997 30.6134 28.9263 29.5334 28.073 28.1201C27.2197 26.7068 26.793 25.0134 26.793 23.0401ZM32.433 23.0801C32.433 23.9868 32.6197 24.8134 32.993 25.5601C33.3663 26.2801 33.873 26.8534 34.513 27.2801C35.153 27.7068 35.873 27.9201 36.673 27.9201C37.553 27.9201 38.313 27.7068 38.953 27.2801C39.593 26.8534 40.0863 26.2801 40.433 25.5601C40.7797 24.8134 40.953 23.9868 40.953 23.0801C40.953 22.1468 40.7797 21.3201 40.433 20.6001C40.0863 19.8801 39.593 19.3068 38.953 18.8801C38.313 18.4534 37.553 18.2401 36.673 18.2401C35.873 18.2401 35.153 18.4534 34.513 18.8801C33.873 19.3068 33.3663 19.8801 32.993 20.6001C32.6197 21.3201 32.433 22.1468 32.433 23.0801ZM59.427 40.8001C57.8536 40.8001 56.5203 40.6134 55.427 40.2401C54.3603 39.8668 53.4536 39.4134 52.707 38.8801C51.9603 38.3468 51.2936 37.8401 50.707 37.3601L53.987 33.5201C54.6003 34.0801 55.307 34.6134 56.107 35.1201C56.9336 35.6534 58.0136 35.9201 59.347 35.9201C60.227 35.9201 61.0403 35.7601 61.787 35.4401C62.5603 35.1468 63.1736 34.7068 63.627 34.1201C64.107 33.5334 64.347 32.8001 64.347 31.9201V28.0801L64.547 29.0801C64.1203 29.9868 63.347 30.7868 62.227 31.4801C61.107 32.1468 59.6403 32.4801 57.827 32.4801C56.2536 32.4801 54.787 32.0801 53.427 31.2801C52.0936 30.4534 51.027 29.3468 50.227 27.9601C49.427 26.5468 49.027 24.9468 49.027 23.1601C49.027 21.3201 49.4536 19.6934 50.307 18.2801C51.1603 16.8401 52.267 15.7068 53.627 14.8801C54.987 14.0534 56.427 13.6401 57.947 13.6401C59.467 13.6401 60.7736 13.8668 61.867 14.3201C62.987 14.7468 63.827 15.2801 64.387 15.9201L64.187 16.4401L64.787 14.5201H69.947V32.0001C69.947 33.7068 69.467 35.2134 68.507 36.5201C67.547 37.8534 66.267 38.8934 64.667 39.6401C63.0936 40.4134 61.347 40.8001 59.427 40.8001ZM54.667 23.0001C54.667 23.9334 54.8803 24.7734 55.307 25.5201C55.7336 26.2668 56.307 26.8534 57.027 27.2801C57.7736 27.7068 58.6003 27.9201 59.507 27.9201C60.2803 27.9201 60.9603 27.8268 61.547 27.6401C62.1603 27.4268 62.6936 27.1334 63.147 26.7601C63.627 26.3601 64.027 25.8668 64.347 25.2801V21.0001C64.107 20.4134 63.747 19.9201 63.267 19.5201C62.787 19.0934 62.227 18.7734 61.587 18.5601C60.9736 18.3201 60.2803 18.2001 59.507 18.2001C58.6003 18.2001 57.7736 18.4134 57.027 18.8401C56.307 19.2401 55.7336 19.8001 55.307 20.5201C54.8803 21.2401 54.667 22.0668 54.667 23.0001ZM80.1618 14.5201L80.6018 17.6401L80.5218 17.3601C81.1352 16.2668 82.0018 15.3868 83.1218 14.7201C84.2418 14.0268 85.6152 13.6801 87.2418 13.6801C88.8952 13.6801 90.2685 14.1734 91.3618 15.1601C92.4818 16.1201 93.0552 17.3734 93.0818 18.9201V32.0001H87.4818V21.0001C87.4552 20.2268 87.2418 19.6134 86.8418 19.1601C86.4685 18.6801 85.8285 18.4401 84.9218 18.4401C84.0685 18.4401 83.3218 18.7201 82.6818 19.2801C82.0418 19.8401 81.5485 20.6001 81.2018 21.5601C80.8552 22.5201 80.6818 23.6268 80.6818 24.8801V32.0001H75.0818V14.5201H80.1618ZM98.214 14.5201H103.814V32.0001H98.214V14.5201ZM98.094 8.32006C98.094 7.49336 98.414 6.81336 99.054 6.28006C99.721 5.74676 100.428 5.48006 101.174 5.48006C101.921 5.48006 102.601 5.74676 103.214 6.28006C103.854 6.81336 104.174 7.49336 104.174 8.32006C104.174 9.14676 103.854 9.82676 103.214 10.3601C102.601 10.8668 101.921 11.1201 101.174 11.1201C100.428 11.1201 99.721 10.8668 99.054 10.3601C98.414 9.82676 98.094 9.14676 98.094 8.32006ZM110.644 32.0001V19.4001H107.684V14.4401H110.644V8.36006C110.644 6.06676 111.297 4.20006 112.604 2.76006C113.937 1.29339 115.857 0.560059 118.364 0.560059C119.11 0.560059 119.937 0.680058 120.844 0.920058C121.777 1.13339 122.59 1.49339 123.284 2.00006L120.924 6.04006C120.657 5.69336 120.337 5.46676 119.964 5.36006C119.617 5.22676 119.284 5.16006 118.964 5.16006C118.164 5.16006 117.51 5.42676 117.004 5.96006C116.497 6.49336 116.244 7.34676 116.244 8.52006V14.4401H121.524V19.4001H116.244V32.0001H110.644ZM127.129 40.4001L138.769 14.5201H143.809L132.529 40.4001H127.129ZM131.809 32.0801L123.249 14.5201H129.529L136.129 29.2801L131.809 32.0801Z"
          fill="white"/>
</svg>
