<svg width="41" height="52" viewBox="0 0 41 52" fill="none" xmlns="http://www.w3.org/2000/svg">
    <path fill-rule="evenodd" clip-rule="evenodd"
          d="M5.80322 37.1523L13.5772 50.4168C14.3692 51.768 16.1062 52.2215 17.4572 51.4296L38.6612 39.0032C40.0132 38.2113 40.4662 36.474 39.6742 35.1227L34.3352 26.0127L24.4882 44.0976C23.7392 45.4731 22.0162 45.9809 20.6412 45.2319L5.80322 37.1523Z"
          fill="#11EDE9"/>
    <path fill-rule="evenodd" clip-rule="evenodd"
          d="M3.77393 32.9212C4.02093 33.4565 4.43592 33.9199 4.99292 34.2234L19.9359 42.3605C21.3119 43.1095 23.0339 42.6017 23.7829 41.2262L35.5369 19.6417C36.2859 18.2662 35.7779 16.544 34.4019 15.795L25.5219 10.9595V30.2491C25.5219 31.8153 24.2529 33.0849 22.6869 33.0849H4.72592C4.39192 33.0849 4.07193 33.0272 3.77393 32.9212Z"
          fill="#FB9B9A"/>
    <path d="M20.7961 0H2.83582C1.26964 0 0 1.26964 0 2.83582V28.3583C0 29.9245 1.26964 31.1941 2.83582 31.1941H20.7961C22.3623 31.1941 23.6319 29.9245 23.6319 28.3583V2.83582C23.6319 1.26964 22.3623 0 20.7961 0Z"
          fill="#B88AFD"/>
</svg>
