<svg width="201" height="60" viewBox="0 0 201 60" fill="none" xmlns="http://www.w3.org/2000/svg">
    <g clip-path="url(#clip0_251_1436)">
        <path d="M25.88 37.5601C25.56 37.8268 24.96 38.1868 24.08 38.6401C23.2267 39.0934 22.1733 39.4934 20.92 39.8401C19.6667 40.1868 18.28 40.3468 16.76 40.3201C14.44 40.2668 12.36 39.8534 10.52 39.0801C8.70667 38.2801 7.16 37.2001 5.88 35.8401C4.62667 34.4801 3.66667 32.9201 3 31.1601C2.33333 29.4001 2 27.5201 2 25.5201C2 23.2801 2.33333 21.2268 3 19.3601C3.69333 17.4934 4.66667 15.8801 5.92 14.5201C7.2 13.1601 8.72 12.1068 10.48 11.3601C12.24 10.6134 14.1867 10.2401 16.32 10.2401C18.2933 10.2401 20.04 10.5068 21.56 11.0401C23.08 11.5734 24.32 12.1468 25.28 12.7601L23 18.2401C22.3333 17.7334 21.44 17.2134 20.32 16.6801C19.2267 16.1201 17.96 15.8401 16.52 15.8401C15.4 15.8401 14.32 16.0801 13.28 16.5601C12.2667 17.0134 11.36 17.6668 10.56 18.5201C9.78667 19.3734 9.17333 20.3734 8.72 21.5201C8.26667 22.6401 8.04 23.8668 8.04 25.2001C8.04 26.6134 8.24 27.9068 8.64 29.0801C9.06667 30.2534 9.66667 31.2668 10.44 32.1201C11.2133 32.9468 12.1333 33.5868 13.2 34.0401C14.2933 34.4934 15.52 34.7201 16.88 34.7201C18.4533 34.7201 19.8 34.4668 20.92 33.9601C22.04 33.4534 22.8933 32.9201 23.48 32.3601L25.88 37.5601ZM28.793 31.0401C28.793 29.2534 29.2063 27.6534 30.033 26.2401C30.8863 24.8268 32.073 23.7201 33.593 22.9201C35.113 22.0934 36.8597 21.6801 38.833 21.6801C40.833 21.6801 42.5663 22.0934 44.033 22.9201C45.4997 23.7201 46.6197 24.8268 47.393 26.2401C48.193 27.6534 48.593 29.2534 48.593 31.0401C48.593 32.8268 48.193 34.4401 47.393 35.8801C46.6197 37.2934 45.4997 38.4134 44.033 39.2401C42.5663 40.0668 40.8063 40.4801 38.753 40.4801C36.833 40.4801 35.113 40.1068 33.593 39.3601C32.0997 38.6134 30.9263 37.5334 30.073 36.1201C29.2197 34.7068 28.793 33.0134 28.793 31.0401ZM34.433 31.0801C34.433 31.9868 34.6197 32.8134 34.993 33.5601C35.3663 34.2801 35.873 34.8534 36.513 35.2801C37.153 35.7068 37.873 35.9201 38.673 35.9201C39.553 35.9201 40.313 35.7068 40.953 35.2801C41.593 34.8534 42.0863 34.2801 42.433 33.5601C42.7797 32.8134 42.953 31.9868 42.953 31.0801C42.953 30.1468 42.7797 29.3201 42.433 28.6001C42.0863 27.8801 41.593 27.3068 40.953 26.8801C40.313 26.4534 39.553 26.2401 38.673 26.2401C37.873 26.2401 37.153 26.4534 36.513 26.8801C35.873 27.3068 35.3663 27.8801 34.993 28.6001C34.6197 29.3201 34.433 30.1468 34.433 31.0801ZM61.427 48.8001C59.8536 48.8001 58.5203 48.6134 57.427 48.2401C56.3603 47.8668 55.4536 47.4134 54.707 46.8801C53.9603 46.3468 53.2936 45.8401 52.707 45.3601L55.987 41.5201C56.6003 42.0801 57.307 42.6134 58.107 43.1201C58.9336 43.6534 60.0136 43.9201 61.347 43.9201C62.227 43.9201 63.0403 43.7601 63.787 43.4401C64.5603 43.1468 65.1736 42.7068 65.627 42.1201C66.107 41.5334 66.347 40.8001 66.347 39.9201V36.0801L66.547 37.0801C66.1203 37.9868 65.347 38.7868 64.227 39.4801C63.107 40.1468 61.6403 40.4801 59.827 40.4801C58.2536 40.4801 56.787 40.0801 55.427 39.2801C54.0936 38.4534 53.027 37.3468 52.227 35.9601C51.427 34.5468 51.027 32.9468 51.027 31.1601C51.027 29.3201 51.4536 27.6934 52.307 26.2801C53.1603 24.8401 54.267 23.7068 55.627 22.8801C56.987 22.0534 58.427 21.6401 59.947 21.6401C61.467 21.6401 62.7736 21.8668 63.867 22.3201C64.987 22.7468 65.827 23.2801 66.387 23.9201L66.187 24.4401L66.787 22.5201H71.947V40.0001C71.947 41.7068 71.467 43.2134 70.507 44.5201C69.547 45.8534 68.267 46.8934 66.667 47.6401C65.0936 48.4134 63.347 48.8001 61.427 48.8001ZM56.667 31.0001C56.667 31.9334 56.8803 32.7734 57.307 33.5201C57.7336 34.2668 58.307 34.8534 59.027 35.2801C59.7736 35.7068 60.6003 35.9201 61.507 35.9201C62.2803 35.9201 62.9603 35.8268 63.547 35.6401C64.1603 35.4268 64.6936 35.1334 65.147 34.7601C65.627 34.3601 66.027 33.8668 66.347 33.2801V29.0001C66.107 28.4134 65.747 27.9201 65.267 27.5201C64.787 27.0934 64.227 26.7734 63.587 26.5601C62.9736 26.3201 62.2803 26.2001 61.507 26.2001C60.6003 26.2001 59.7736 26.4134 59.027 26.8401C58.307 27.2401 57.7336 27.8001 57.307 28.5201C56.8803 29.2401 56.667 30.0668 56.667 31.0001ZM82.1618 22.5201L82.6018 25.6401L82.5218 25.3601C83.1352 24.2668 84.0018 23.3868 85.1218 22.7201C86.2418 22.0268 87.6152 21.6801 89.2418 21.6801C90.8952 21.6801 92.2685 22.1734 93.3618 23.1601C94.4818 24.1201 95.0552 25.3734 95.0818 26.9201V40.0001H89.4818V29.0001C89.4552 28.2268 89.2418 27.6134 88.8418 27.1601C88.4685 26.6801 87.8285 26.4401 86.9218 26.4401C86.0685 26.4401 85.3218 26.7201 84.6818 27.2801C84.0418 27.8401 83.5485 28.6001 83.2018 29.5601C82.8552 30.5201 82.6818 31.6268 82.6818 32.8801V40.0001H77.0818V22.5201H82.1618ZM100.214 22.5201H105.814V40.0001H100.214V22.5201ZM100.094 16.3201C100.094 15.4934 100.414 14.8134 101.054 14.2801C101.721 13.7468 102.428 13.4801 103.174 13.4801C103.921 13.4801 104.601 13.7468 105.214 14.2801C105.854 14.8134 106.174 15.4934 106.174 16.3201C106.174 17.1468 105.854 17.8268 105.214 18.3601C104.601 18.8668 103.921 19.1201 103.174 19.1201C102.428 19.1201 101.721 18.8668 101.054 18.3601C100.414 17.8268 100.094 17.1468 100.094 16.3201ZM112.644 40.0001V27.4001H109.684V22.4401H112.644V16.3601C112.644 14.0668 113.297 12.2001 114.604 10.7601C115.937 9.29339 117.857 8.56006 120.364 8.56006C121.11 8.56006 121.937 8.68006 122.844 8.92006C123.777 9.13339 124.59 9.49339 125.284 10.0001L122.924 14.0401C122.657 13.6934 122.337 13.4668 121.964 13.3601C121.617 13.2268 121.284 13.1601 120.964 13.1601C120.164 13.1601 119.51 13.4268 119.004 13.9601C118.497 14.4934 118.244 15.3468 118.244 16.5201V22.4401H123.524V27.4001H118.244V40.0001H112.644ZM129.129 48.4001L140.769 22.5201H145.809L134.529 48.4001H129.129ZM133.809 40.0801L125.249 22.5201H131.529L138.129 37.2801L133.809 40.0801Z"
              fill="white"/>
        <path fill-rule="evenodd" clip-rule="evenodd"
              d="M165.803 45.3334L173.577 58.5979C174.369 59.9491 176.106 60.4026 177.457 59.6107L198.661 47.1843C200.013 46.3924 200.466 44.6551 199.674 43.3038L194.335 34.1938L184.488 52.2787C183.739 53.6542 182.016 54.162 180.641 53.413L165.803 45.3334Z"
              fill="#11EDE9"/>
        <path fill-rule="evenodd" clip-rule="evenodd"
              d="M163.774 41.1023C164.021 41.6376 164.436 42.101 164.993 42.4045L179.936 50.5416C181.312 51.2906 183.034 50.7828 183.783 49.4073L195.537 27.8228C196.286 26.4473 195.778 24.7251 194.402 23.9761L185.522 19.1406V38.4302C185.522 39.9964 184.253 41.266 182.687 41.266H164.726C164.392 41.266 164.072 41.2083 163.774 41.1023Z"
              fill="#FB9B9A"/>
        <path d="M180.796 8.18115H162.836C161.27 8.18115 160 9.45079 160 11.017V36.5394C160 38.1056 161.27 39.3753 162.836 39.3753H180.796C182.362 39.3753 183.632 38.1056 183.632 36.5394V11.017C183.632 9.45079 182.362 8.18115 180.796 8.18115Z"
              fill="#B88AFD"/>
    </g>
    <defs>
        <clipPath id="clip0_251_1436">
            <rect width="201" height="60" fill="white"/>
        </clipPath>
    </defs>
</svg>
