<svg width="25" height="24" viewBox="0 0 25 24" fill="none" xmlns="http://www.w3.org/2000/svg">
    <path d="M19.5 12C19.5 12.2228 19.4115 12.4364 19.254 12.594C19.0964 12.7515 18.8828 12.84 18.66 12.84H13.34V18.16C13.34 18.3828 13.2515 18.5964 13.094 18.754C12.9364 18.9115 12.7228 19 12.5 19C12.2772 19 12.0636 18.9115 11.906 18.754C11.7485 18.5964 11.66 18.3828 11.66 18.16V12.84H6.34C6.11722 12.84 5.90356 12.7515 5.74603 12.594C5.5885 12.4364 5.5 12.2228 5.5 12C5.5 11.7772 5.5885 11.5636 5.74603 11.406C5.90356 11.2485 6.11722 11.16 6.34 11.16H11.66V5.84C11.66 5.61722 11.7485 5.40356 11.906 5.24603C12.0636 5.0885 12.2772 5 12.5 5C12.7228 5 12.9364 5.0885 13.094 5.24603C13.2515 5.40356 13.34 5.61722 13.34 5.84V11.16H18.66C18.8828 11.16 19.0964 11.2485 19.254 11.406C19.4115 11.5636 19.5 11.7772 19.5 12Z"
          fill="black"/>
</svg>
