<svg width="16" height="16" viewBox="0 0 16 16" fill="none" xmlns="http://www.w3.org/2000/svg">
    <path fill-rule="evenodd" clip-rule="evenodd"
          d="M3.73804 11.1281L6.06654 15.1011C6.30376 15.5058 6.82404 15.6417 7.2287 15.4045L13.5798 11.6825C13.9848 11.4453 14.1205 10.9249 13.8832 10.5202L12.2841 7.7915L9.33465 13.2084C9.11031 13.6204 8.59423 13.7725 8.18238 13.5481L3.73804 11.1281Z"
          fill="#11EDE9"/>
    <path fill-rule="evenodd" clip-rule="evenodd"
          d="M3.13037 9.86078C3.20435 10.0211 3.32865 10.1599 3.49549 10.2508L7.97129 12.6881C8.38343 12.9124 8.89921 12.7603 9.12356 12.3483L12.6442 5.88325C12.8685 5.47125 12.7163 4.95541 12.3042 4.73107L9.64443 3.28271V9.06042C9.64443 9.52954 9.26433 9.90981 8.79527 9.90981H3.41552C3.31548 9.90981 3.21963 9.89253 3.13037 9.86078Z"
          fill="#FB9B9A"/>
    <path d="M8.22893 0H2.8494C2.38029 0 2 0.380288 2 0.849397V8.494C2 8.96311 2.38029 9.34339 2.8494 9.34339H8.22893C8.69804 9.34339 9.07833 8.96311 9.07833 8.494V0.849397C9.07833 0.380288 8.69804 0 8.22893 0Z"
          fill="#B88AFD"/>
</svg>
